<?xml version="1.0" encoding="iso-8859-1"?>
<!-- Generator: Adobe Illustrator 19.1.0, SVG Export Plug-In . SVG Version: 6.00 Build 0)  -->
<svg xmlns="http://www.w3.org/2000/svg" xmlns:xlink="http://www.w3.org/1999/xlink" version="1.1" id="Capa_1" x="0px" y="0px" viewBox="0 0 64.344 64.344" style="enable-background:new 0 0 64.344 64.344;" xml:space="preserve" width="512px" height="512px">
<g>
	<g>
		<path d="M40.172,49.699c-1.651-2.043-4.174-3.355-7-3.355c-4.963,0-9,4.038-9,9s4.037,9,9,9s9-4.038,9-9V22.088l20-6V0l-22,6.6    V49.699z M33.172,62.344c-3.859,0-7-3.14-7-7s3.141-7,7-7s7,3.14,7,7S37.031,62.344,33.172,62.344z M42.172,8.088l18-5.4V14.6    l-18,5.4V8.088z" fill="#CC3300"/>
		<rect x="2.172" y="15.344" width="34" height="2" fill="#CC3300"/>
		<rect x="2.172" y="25.344" width="34" height="2" fill="#CC3300"/>
		<rect x="2.172" y="35.344" width="34" height="2" fill="#CC3300"/>
	</g>
</g>
<g>
</g>
<g>
</g>
<g>
</g>
<g>
</g>
<g>
</g>
<g>
</g>
<g>
</g>
<g>
</g>
<g>
</g>
<g>
</g>
<g>
</g>
<g>
</g>
<g>
</g>
<g>
</g>
<g>
</g>
</svg>
