<?xml version="1.0" encoding="utf-8"?>
<!-- Generator: Adobe Illustrator 21.0.2, SVG Export Plug-In . SVG Version: 6.00 Build 0)  -->
<svg version="1.1" id="Layer_1" xmlns="http://www.w3.org/2000/svg" xmlns:xlink="http://www.w3.org/1999/xlink" x="0px" y="0px"
	 viewBox="0 0 1280 1024" style="enable-background:new 0 0 1280 1024;" xml:space="preserve">
<style type="text/css">
	.st0{fill:#CC3300;stroke:#CC3300;stroke-miterlimit:10;}
	.st1{fill:#CCDBDC;stroke:#CCDBDC;stroke-miterlimit:10;}
</style>
<path class="st0" d="M882.7,947.8H329.4c-27.5,0-50-22.5-50-50V266.1c0-27.5,22.5-50,50-50h553.3c27.5,0,50,22.5,50,50v631.7
	C932.7,925.3,910.2,947.8,882.7,947.8z"/>
<g>
	<ellipse class="st1" cx="440.8" cy="319.1" rx="59" ry="62.4"/>
	<path class="st1" d="M456.4,508.4v-92.1l89.6-89.6h153.2l82.6,82.8c0,0,18.9,25.2-4.9,44.7c-23.8,19.5-45-7.5-45-7.5l-56.5-56.5
		h-66l97.1,98.3V624l138.3-0.2c0,0,30.7,1.6,31.4,31.6c0,0,3.4,28.7-30.3,32H644.4v-102l-63.6,59.8v123.1c0,0-3.6,25-30.8,27
		c0,0-25.4,3.3-31.3-28V622.9l70.3-70.4l-71.3-73.1l-0.3,89.9L363,569.3c0,0-27.9-2.4-27.3-33c0,0-1.2-23.6,28-28.1L456.4,508.4z"/>
	<circle class="st1" cx="507.3" cy="890.4" r="23.5"/>
	<circle class="st1" cx="756.2" cy="890.4" r="23.5"/>
	<path class="st1" d="M508.8,810.7"/>
	<path class="st1" d="M756.1,810.7l31.9-24.8c0,0,16.8-8,28.9,6.4c0,0,10.5,13.1,2,26.7L779,852.8c0,0,0.2,2-11.9,4.9H496.7
		c0,0-5.5,0.7-12.7-5.8l-36.8-33.6c0,0-13.8-14.6,0.9-30.5c0,0,9.2-12.2,27.3-5.7l33.4,28.5H756.1z"/>
</g>
</svg>
