<?xml version="1.0" encoding="iso-8859-1"?>
<!-- Generator: Adobe Illustrator 19.0.0, SVG Export Plug-In . SVG Version: 6.00 Build 0)  -->
<svg xmlns="http://www.w3.org/2000/svg" xmlns:xlink="http://www.w3.org/1999/xlink" version="1.1" id="Capa_1" x="0px" y="0px" viewBox="0 0 489.933 489.933" style="enable-background:new 0 0 489.933 489.933;" xml:space="preserve" width="512px" height="512px">
<g>
	<path d="M468.233,149.266h-188l24.3-45.6h164.7c11.4,0,20.7-9.3,20.7-20.7s-9.3-20.7-20.7-20.7h-176c-7.3,0-14.5,4.1-17.6,10.4   l-41.5,76.7h-77.6c-11.4,0-20.7,9.3-20.7,20.7v35.6l-106.8-46.1c-19.1-5.4-29.7,7.6-29,18.6v220.6c0,16.9,19.3,23.2,29,17.6   l106.7-46v36.6c0,11.4,9.3,20.7,20.7,20.7h311.8c11.4,0,19.7-9.3,20.7-20.7v-237C488.933,158.566,479.633,149.266,468.233,149.266z    M41.533,366.766v-157.4l94.3,40.4v76.7L41.533,366.766z M447.533,386.466h-271.4v-196.8h271.4V386.466z" fill="#FFFFFF"/>
</g>
<g>
</g>
<g>
</g>
<g>
</g>
<g>
</g>
<g>
</g>
<g>
</g>
<g>
</g>
<g>
</g>
<g>
</g>
<g>
</g>
<g>
</g>
<g>
</g>
<g>
</g>
<g>
</g>
<g>
</g>
</svg>
